<svg width="379" height="32" viewBox="0 0 379 32" fill="none" xmlns="http://www.w3.org/2000/svg">
<path fill-rule="evenodd" clip-rule="evenodd" d="M294.914 1.33549C246.151 -0.2597 213.775 0.117787 148.932 3.03744C143.229 3.29407 134.314 3.69272 129.119 3.92335C86.3286 5.82194 26.4389 12.4705 9.84022 17.1647C6.39787 18.1382 0.218304 20.9832 0.192094 21.6067C0.187761 21.7098 0.477072 21.5599 1.61937 20.8672C6.88567 17.6735 20.759 15.2017 54.8256 11.3877C74.9488 9.13467 96.9137 7.25999 114.983 6.25345C128.777 5.48504 194.179 2.98682 196.369 3.14491C196.818 3.17725 194.322 3.34188 190.82 3.51068C153.209 5.32452 140.393 6.1619 117.664 8.29142C100.054 9.9413 89.7085 11.2589 63.2465 15.223C53.2908 16.7142 53.5789 16.6554 53.3975 17.2375C52.938 18.7119 54.2014 18.7981 62.3666 17.8494C117.74 11.4165 150.701 9.61513 202.22 10.2063C216.082 10.3653 264.056 11.9909 263.202 12.2725C262.715 12.4335 248.245 12.9379 224.003 13.6389C169.767 15.2076 134.975 18.3133 96.5323 25.018C85.8732 26.8769 83.9474 27.5218 84.8111 28.9426C85.7233 30.443 91.7614 30.2804 121.346 27.9577C165.654 24.4791 182.085 23.7388 217.436 23.6278C225.653 23.6021 239.758 23.8152 239.349 23.9591C239.235 23.9992 230.31 24.6185 219.516 25.3352C192.507 27.1281 175.166 28.5459 174.543 29.0118C173.582 29.73 173.804 30.8332 174.985 31.2093C176.425 31.6679 180.553 31.6232 190.073 31.0458C210.719 29.7934 231.311 29.496 261.72 30.0107C266.27 30.0876 271.571 30.1308 273.499 30.1066C277.984 30.0503 285.077 30.3484 288.35 30.7309C289.752 30.8946 291.496 31.0972 292.225 31.1811C294.99 31.499 285.427 29.7974 281.343 29.2446C271.105 27.8594 257.717 27.0838 241.807 26.9544C238.157 26.9247 235.14 26.868 235.103 26.8286C235.026 26.7457 238.734 26.5294 256.7 25.5701C270.475 24.8343 270.822 24.7908 271.39 23.7298C271.751 23.0567 271.454 22.2255 270.693 21.7795C270.117 21.4421 250.076 20.7003 239.182 20.6132C213.067 20.4046 199.216 20.5797 181.771 21.3387C164.121 22.1068 152.381 22.9625 122.997 25.6231C105.108 27.243 95.6932 27.9883 92.5503 28.0338L90.6023 28.062L92.98 27.5625C100.314 26.0219 124.694 22.5356 138.543 21.0468C167.313 17.9542 186.933 16.8045 230.887 15.6358C267.819 14.6538 275.393 14.2129 276.013 13.0096C276.683 11.713 275.621 10.8816 272.608 10.3417C268.499 9.6055 217.472 7.60917 199.363 7.47606C181.607 7.34567 160.499 7.64983 149.33 8.19717C148.144 8.25533 146.852 8.27783 146.459 8.24724C143.568 8.02252 183.564 5.89521 206.433 5.05753C231.484 4.13992 251.286 3.8343 278.717 3.9419C296.454 4.01167 341.644 6.18917 359.91 7.85459C376.831 9.39735 377.439 9.43413 377.974 8.95088C378.532 8.44686 378.564 8.05703 378.087 7.54765C377.48 6.89935 373.927 6.42037 365.833 5.89568C362.854 5.70249 356.284 5.1509 351.232 4.66965C346.18 4.1886 339.933 3.61517 337.35 3.39529C332.476 2.98049 306.172 1.70385 294.914 1.33549ZM204.525 2.9898C204.385 3.03905 204.108 3.03088 203.911 2.97149C203.714 2.9121 203.83 2.87184 204.167 2.88198C204.505 2.89212 204.666 2.94055 204.525 2.9898ZM201.856 3.0888C201.602 3.12588 201.142 3.10778 200.833 3.04872C200.524 2.98946 200.732 2.95911 201.294 2.98109C201.857 3.00328 202.11 3.05173 201.856 3.0888ZM199.083 3.17622C198.771 3.20925 198.265 3.18802 197.958 3.12902C197.65 3.07002 197.905 3.04306 198.524 3.06902C199.143 3.09498 199.394 3.14318 199.083 3.17622ZM145.276 8.36571C145.021 8.40292 144.606 8.38554 144.355 8.32709C144.104 8.26845 144.313 8.23795 144.819 8.25918C145.325 8.28042 145.531 8.32829 145.276 8.36571ZM143.017 8.46343C142.874 8.5134 142.644 8.50375 142.506 8.44198C142.368 8.38042 142.485 8.33963 142.766 8.35143C143.047 8.36323 143.16 8.41367 143.017 8.46343ZM294.004 31.5052C294.143 31.5669 294.373 31.5766 294.516 31.5266C294.659 31.4769 294.546 31.4264 294.264 31.4146C293.983 31.4028 293.866 31.4436 294.004 31.5052Z" fill="#89F1FF"/>
</svg>
